<svg aria-label="A chart." style="overflow: hidden;" height="300"
                    width="450">
                    <defs id="defs"></defs>
                         <path fill="darkgreen" stroke-width="1" stroke="darkgreen" d="M151.73205081,119.00000000 L153.46410162,58.00000000 A90.00000000,60.00000000,0,0,1,190.07039949,63.18727254 M190.07039949,63.18727254 L151.73205081,119.00000000"></path><path fill="darkgreen" stroke-width="1" stroke="darkgreen" d="M151.73205081,119.00000000 L190.07039949,63.18727254 A90.00000000,60.00000000,0,0,1,220.34713591,77.85216362 M220.34713591,77.85216362 L151.73205081,119.00000000"></path><path fill="darkgreen" stroke-width="1" stroke="darkgreen" d="M151.73205081,119.00000000 L220.34713591,77.85216362 A90.00000000,60.00000000,0,0,1,239.05918808,99.45898034 M239.05918808,99.45898034 L151.73205081,119.00000000"></path><path fill="darkgreen" stroke-width="1" stroke="darkgreen" d="M151.73205081,119.00000000 L239.05918808,99.45898034 A90.00000000,60.00000000,0,0,1,242.97107220,124.27170780 M242.97107220,124.27170780 L151.73205081,119.00000000"></path><path fill="darkgreen" stroke-width="1" stroke="darkgreen" d="M151.73205081,119.00000000 L242.97107220,124.27170780 A90.00000000,60.00000000,0,0,1,231.40638796,148.00000000 M231.40638796,148.00000000 L151.73205081,119.00000000"></path><path fill="darkred" stroke-width="1" stroke="darkred" d="M150.00000000,122.00000000 L227.94228634,154.00000000 A90.00000000,60.00000000,0,0,1,202.90067271,172.54101966 M202.90067271,172.54101966 L150.00000000,122.00000000"></path><path fill="darkred" stroke-width="1" stroke="darkred" d="M150.00000000,122.00000000 L202.90067271,172.54101966 A90.00000000,60.00000000,0,0,1,168.71205217,182.68885604 M168.71205217,182.68885604 L150.00000000,122.00000000"></path><path fill="darkred" stroke-width="1" stroke="darkred" d="M150.00000000,122.00000000 L168.71205217,182.68885604 A90.00000000,60.00000000,0,0,1,131.28794783,182.68885604 M131.28794783,182.68885604 L150.00000000,122.00000000"></path><path fill="darkred" stroke-width="1" stroke="darkred" d="M150.00000000,122.00000000 L131.28794783,182.68885604 A90.00000000,60.00000000,0,0,1,97.09932729,172.54101966 M97.09932729,172.54101966 L150.00000000,122.00000000"></path><path fill="darkred" stroke-width="1" stroke="darkred" d="M150.00000000,122.00000000 L97.09932729,172.54101966 A90.00000000,60.00000000,0,0,1,72.05771366,154.00000000 M72.05771366,154.00000000 L150.00000000,122.00000000"></path><path fill="darkgray" stroke-width="1" stroke="darkgray" d="M148.26794919,119.00000000 L68.59361204,148.00000000 A90.00000000,60.00000000,0,0,1,57.02892780,124.27170780 M57.02892780,124.27170780 L148.26794919,119.00000000"></path><path fill="darkgray" stroke-width="1" stroke="darkgray" d="M148.26794919,119.00000000 L57.02892780,124.27170780 A90.00000000,60.00000000,0,0,1,60.94081192,99.45898034 M60.94081192,99.45898034 L148.26794919,119.00000000"></path><path fill="darkgray" stroke-width="1" stroke="darkgray" d="M148.26794919,119.00000000 L60.94081192,99.45898034 A90.00000000,60.00000000,0,0,1,79.65286409,77.85216362 M79.65286409,77.85216362 L148.26794919,119.00000000"></path><path fill="darkgray" stroke-width="1" stroke="darkgray" d="M148.26794919,119.00000000 L79.65286409,77.85216362 A90.00000000,60.00000000,0,0,1,109.92960051,63.18727254 M109.92960051,63.18727254 L148.26794919,119.00000000"></path><path fill="darkgray" stroke-width="1" stroke="darkgray" d="M148.26794919,119.00000000 L109.92960051,63.18727254 A90.00000000,60.00000000,0,0,1,146.53589838,58.00000000 M146.53589838,58.00000000 L148.26794919,119.00000000"></path><path fill="darkgreen" stroke-width="1" stroke="darkgreen" d="M151.73205081,119.00000000 L153.46410162,58.00000000 L153.46410162,38.00000000 L151.73205081,99.00000000 L151.73205081,119.00000000 "></path><path fill="darkred" stroke-width="1" stroke="darkred" d="M150.00000000,122.00000000 L227.94228634,154.00000000 L227.94228634,134.00000000 L150.00000000,102.00000000 L150.00000000,122.00000000 "></path><path fill="darkgray" stroke-width="1" stroke="darkgray" d="M148.26794919,119.00000000 L68.59361204,148.00000000 L68.59361204,128.00000000 L148.26794919,99.00000000 L148.26794919,119.00000000 "></path><path fill="darkgreen" stroke-width="1" stroke="darkgreen" d="M151.73205081,119.00000000 L231.40638796,148.00000000 L231.40638796,128.00000000 L151.73205081,99.00000000 L151.73205081,119.00000000 "></path><path fill="darkred" stroke-width="1" stroke="darkred" d="M150.00000000,122.00000000 L72.05771366,154.00000000 L72.05771366,134.00000000 L150.00000000,102.00000000 L150.00000000,122.00000000 "></path><path fill="darkgray" stroke-width="1" stroke="darkgray" d="M148.26794919,119.00000000 L146.53589838,58.00000000 L146.53589838,38.00000000 L148.26794919,99.00000000 L148.26794919,119.00000000 "></path><path fill="green" stroke-width="1" stroke="green" d="M151.73205081,99.00000000 L153.46410162,38.00000000 A90.00000000,60.00000000,0,0,1,190.07039949,43.18727254 M190.07039949,43.18727254 L151.73205081,99.00000000"></path><path fill="green" stroke-width="1" stroke="green" d="M151.73205081,99.00000000 L190.07039949,43.18727254 A90.00000000,60.00000000,0,0,1,220.34713591,57.85216362 M220.34713591,57.85216362 L151.73205081,99.00000000"></path><path fill="green" stroke-width="1" stroke="green" d="M151.73205081,99.00000000 L220.34713591,57.85216362 A90.00000000,60.00000000,0,0,1,239.05918808,79.45898034 M239.05918808,79.45898034 L151.73205081,99.00000000"></path><path fill="green" stroke-width="1" stroke="green" d="M151.73205081,99.00000000 L239.05918808,79.45898034 A90.00000000,60.00000000,0,0,1,242.97107220,104.27170780 M242.97107220,104.27170780 L151.73205081,99.00000000"></path><path fill="green" stroke-width="1" stroke="green" d="M151.73205081,99.00000000 L242.97107220,104.27170780 A90.00000000,60.00000000,0,0,1,231.40638796,128.00000000 M231.40638796,128.00000000 L151.73205081,99.00000000"></path><path fill="red" stroke-width="1" stroke="red" d="M150.00000000,102.00000000 L227.94228634,134.00000000 A90.00000000,60.00000000,0,0,1,202.90067271,152.54101966 M202.90067271,152.54101966 L150.00000000,102.00000000"></path><path fill="red" stroke-width="1" stroke="red" d="M150.00000000,102.00000000 L202.90067271,152.54101966 A90.00000000,60.00000000,0,0,1,168.71205217,162.68885604 M168.71205217,162.68885604 L150.00000000,102.00000000"></path><path fill="red" stroke-width="1" stroke="red" d="M150.00000000,102.00000000 L168.71205217,162.68885604 A90.00000000,60.00000000,0,0,1,131.28794783,162.68885604 M131.28794783,162.68885604 L150.00000000,102.00000000"></path><path fill="red" stroke-width="1" stroke="red" d="M150.00000000,102.00000000 L131.28794783,162.68885604 A90.00000000,60.00000000,0,0,1,97.09932729,152.54101966 M97.09932729,152.54101966 L150.00000000,102.00000000"></path><path fill="red" stroke-width="1" stroke="red" d="M150.00000000,102.00000000 L97.09932729,152.54101966 A90.00000000,60.00000000,0,0,1,72.05771366,134.00000000 M72.05771366,134.00000000 L150.00000000,102.00000000"></path><path fill="silver" stroke-width="1" stroke="silver" d="M148.26794919,99.00000000 L68.59361204,128.00000000 A90.00000000,60.00000000,0,0,1,57.02892780,104.27170780 M57.02892780,104.27170780 L148.26794919,99.00000000"></path><path fill="silver" stroke-width="1" stroke="silver" d="M148.26794919,99.00000000 L57.02892780,104.27170780 A90.00000000,60.00000000,0,0,1,60.94081192,79.45898034 M60.94081192,79.45898034 L148.26794919,99.00000000"></path><path fill="silver" stroke-width="1" stroke="silver" d="M148.26794919,99.00000000 L60.94081192,79.45898034 A90.00000000,60.00000000,0,0,1,79.65286409,57.85216362 M79.65286409,57.85216362 L148.26794919,99.00000000"></path><path fill="silver" stroke-width="1" stroke="silver" d="M148.26794919,99.00000000 L79.65286409,57.85216362 A90.00000000,60.00000000,0,0,1,109.92960051,43.18727254 M109.92960051,43.18727254 L148.26794919,99.00000000"></path><path fill="silver" stroke-width="1" stroke="silver" d="M148.26794919,99.00000000 L109.92960051,43.18727254 A90.00000000,60.00000000,0,0,1,146.53589838,38.00000000 M146.53589838,38.00000000 L148.26794919,99.00000000"></path><text x="280" y="67" font-weight = "bold" font-size = "14">33% (2) Passed</text><circle cx="270" cy="62" r="5" stroke="darkgreen" stroke-width="1" fill="green" /><text x="280" y="97" font-weight = "bold" font-size = "14">33% (2) Failed</text><circle cx="270" cy="92" r="5" stroke="darkred" stroke-width="1" fill="red" /><text x="280" y="127" font-weight = "bold" font-size = "14">33% (2) Undefined</text><circle cx="270" cy="122" r="5" stroke="darkgray" stroke-width="1" fill="silver" />
                    </svg>